HIERARCHY
ROOT root
{
	OFFSET 0.000000 0.000000 0.000000
	CHANNELS 6 Xposition Yposition Zposition Zrotation Yrotation Xrotation
	JOINT lhip
	{
		OFFSET 0.058581 -0.082280 -0.017664
		CHANNELS 3 Zrotation Yrotation Xrotation
		JOINT lknee
		{
			OFFSET 0.043451 -0.386469 0.008037
			CHANNELS 3 Zrotation Yrotation Xrotation
			JOINT lankle
			{
				OFFSET -0.014790 -0.426874 -0.037428
				CHANNELS 3 Zrotation Yrotation Xrotation
				JOINT ltoe
				{
					OFFSET 0.041054 -0.060286 0.122042
					CHANNELS 3 Zrotation Yrotation Xrotation
					End Site
					{
						OFFSET 0.000000 0.000000 0.000000
					}
				}
			}
		}
	}
	JOINT rhip
	{
		OFFSET -0.060310 -0.090513 -0.013543
		CHANNELS 3 Zrotation Yrotation Xrotation
		JOINT rknee
		{
			OFFSET -0.043257 -0.383688 -0.004843
			CHANNELS 3 Zrotation Yrotation Xrotation
			JOINT rankle
			{
				OFFSET 0.019056 -0.420046 -0.034562
				CHANNELS 3 Zrotation Yrotation Xrotation
				JOINT rtoe
				{
					OFFSET -0.034840 -0.062106 0.130323
					CHANNELS 3 Zrotation Yrotation Xrotation
					End Site
					{
						OFFSET 0.000000 0.000000 0.000000
					}
				}
			}
		}
	}
	JOINT lowerback
	{
		OFFSET 0.004439 0.124404 -0.038385
		CHANNELS 3 Zrotation Yrotation Xrotation
		JOINT upperback
		{
			OFFSET 0.004488 0.137956 0.026820
			CHANNELS 3 Zrotation Yrotation Xrotation
			JOINT chest
			{
				OFFSET -0.002265 0.056032 0.002855
				CHANNELS 3 Zrotation Yrotation Xrotation
				JOINT lowerneck
				{
					OFFSET -0.013390 0.211636 -0.033468
					CHANNELS 3 Zrotation Yrotation Xrotation
					JOINT upperneck
					{
						OFFSET 0.010113 0.088937 0.050410
						CHANNELS 3 Zrotation Yrotation Xrotation
						End Site
						{
							OFFSET 0.000000 0.000000 0.000000
						}
					}
				}
				JOINT lclavicle
				{
					OFFSET 0.071702 0.114000 -0.018898
					CHANNELS 3 Zrotation Yrotation Xrotation
					JOINT lshoulder
					{
						OFFSET 0.122921 0.045205 -0.019046
						CHANNELS 3 Zrotation Yrotation Xrotation
						JOINT lelbow
						{
							OFFSET 0.255332 -0.015649 -0.022946
							CHANNELS 3 Zrotation Yrotation Xrotation
							JOINT lwrist
							{
								OFFSET 0.265709 0.012698 -0.007375
								CHANNELS 3 Zrotation Yrotation Xrotation
								End Site
								{
									OFFSET 0.000000 0.000000 0.000000
								}
							}
						}
					}
				}
				JOINT rclavicle
				{
					OFFSET -0.082954 0.112472 -0.023707
					CHANNELS 3 Zrotation Yrotation Xrotation
					JOINT rshoulder
					{
						OFFSET -0.113228 0.046853 -0.008472
						CHANNELS 3 Zrotation Yrotation Xrotation
						JOINT relbow
						{
							OFFSET -0.260127 -0.014369 -0.031269
							CHANNELS 3 Zrotation Yrotation Xrotation
							JOINT rwrist
							{
								OFFSET -0.269108 0.006794 -0.006027
								CHANNELS 3 Zrotation Yrotation Xrotation
								End Site
								{
									OFFSET 0.000000 0.000000 0.000000
								}
							}
						}
					}
				}
			}
		}
	}
}
MOTION
Frames: 13
Frame Time: 0.033333
0.304981 0.280140 0.808802 88.379768 1.947063 76.863988 14.211762 5.755908 -24.920178 -9.172840 5.206981 72.689321 0.966299 16.234377 -36.683824 0.000000 -0.000000 0.000000 -9.911281 -6.334572 -26.897804 5.388596 -3.512680 72.174458 0.304130 -8.703734 -34.135875 0.000000 -0.000000 0.000000 1.766054 0.865727 32.584026 1.163025 -4.129896 1.097234 1.080025 -0.204727 5.749300 0.862138 1.934785 -12.615928 5.476253 -3.206289 -12.442793 12.923777 -26.480199 -17.823038 -15.228015 -25.975158 -9.895074 30.375546 -61.218010 -21.305513 17.022857 -4.570277 -10.667736 -13.835727 25.027419 -15.245935 16.036685 28.872093 -10.811000 -31.308632 57.989452 -18.413265 -6.674104 3.567107 -0.421091 
0.305012 0.279945 0.808981 88.402258 1.939913 76.889191 14.215095 5.754789 -24.922046 -9.183507 5.200041 72.633348 0.961222 16.219941 -36.650863 0.000000 -0.000000 0.000000 -9.903362 -6.326594 -26.895000 5.396818 -3.521328 72.139105 0.311648 -8.725293 -34.132694 0.000000 -0.000000 0.000000 1.756718 0.864699 32.567599 1.163172 -4.128203 1.105894 1.085084 -0.224319 5.738481 0.859205 1.959963 -12.634288 5.479209 -3.187113 -12.439377 12.916893 -26.477214 -17.796417 -15.199537 -25.940526 -9.902523 30.361317 -61.222767 -21.289525 17.001484 -4.570186 -10.674049 -13.838307 25.027588 -15.243315 16.027088 28.886107 -10.797443 -31.256763 57.991455 -18.374917 -6.668344 3.544767 -0.444903 
0.305116 0.279743 0.809125 88.438238 1.937737 76.919253 14.218352 5.769788 -24.935472 -9.170559 5.186992 72.599193 0.973792 16.177482 -36.621261 0.000000 -0.000000 0.000000 -9.890753 -6.343654 -26.885296 5.371777 -3.526316 72.102864 0.308344 -8.732069 -34.105972 0.000000 -0.000000 0.000000 1.749432 0.876277 32.524104 1.173165 -4.133689 1.131200 1.101597 -0.237474 5.751513 0.863998 1.863752 -12.575202 5.457098 -3.210629 -12.569832 12.913562 -26.447230 -17.842948 -15.194411 -25.982545 -9.903678 30.294941 -61.200026 -21.262400 16.991316 -4.546780 -10.658236 -13.870748 25.010860 -15.288409 16.055528 28.893659 -10.754484 -31.254697 57.975697 -18.408521 -6.645692 3.526460 -0.457242 
0.305172 0.279647 0.809204 88.457128 1.931319 76.934820 14.212115 5.761427 -24.947542 -9.175897 5.178236 72.586490 0.969064 16.179970 -36.609941 0.000000 -0.000000 0.000000 -9.886557 -6.337549 -26.893608 5.368257 -3.535558 72.093843 0.308323 -8.740258 -34.112560 0.000000 -0.000000 0.000000 1.739228 0.875991 32.522186 1.177420 -4.140335 1.105305 1.107289 -0.242069 5.754365 0.872805 1.864429 -12.550569 5.448463 -3.219207 -12.557982 12.913210 -26.440980 -17.837092 -15.185287 -25.981755 -9.917593 30.323337 -61.189744 -21.283935 16.974305 -4.551681 -10.628499 -13.861215 25.013372 -15.283386 16.071346 28.913225 -10.749123 -31.239088 57.965845 -18.379555 -6.623059 3.510205 -0.449720 
0.305281 0.279468 0.809255 88.468648 1.913517 76.955498 14.210353 5.757349 -24.947325 -9.179243 5.187556 72.553896 0.958821 16.169767 -36.602051 0.000000 -0.000000 0.000000 -9.880871 -6.322181 -26.901135 5.342920 -3.531464 72.095994 0.316495 -8.781858 -34.101754 0.000000 -0.000000 0.000000 1.708136 0.885570 32.500693 1.174090 -4.138650 1.095170 1.111744 -0.248558 5.750524 0.873898 1.860706 -12.523802 5.436534 -3.221086 -12.541407 12.915355 -26.414053 -17.835652 -15.177643 -26.002246 -9.932017 30.387459 -61.194754 -21.357726 16.956599 -4.541138 -10.659722 -13.846662 25.006281 -15.290646 16.121308 28.958144 -10.713474 -31.196911 57.941326 -18.335275 -6.544965 3.512412 -0.429323 
0.305291 0.279369 0.809309 88.466955 1.906027 76.958944 14.204376 5.758162 -24.941648 -9.172632 5.180723 72.541928 0.959215 16.173487 -36.586364 0.000000 -0.000000 0.000000 -9.868931 -6.327722 -26.901159 5.337208 -3.517964 72.095528 0.307525 -8.783452 -34.110709 0.000000 -0.000000 0.000000 1.706379 0.888504 32.516152 1.167572 -4.134536 1.083826 1.112005 -0.242798 5.738026 0.845157 1.878929 -12.536785 5.428130 -3.205898 -12.543572 12.931285 -26.413169 -17.840762 -15.154659 -25.987768 -9.957394 30.425834 -61.216127 -21.387344 16.919115 -4.536546 -10.674251 -13.854634 25.014619 -15.278257 16.135129 28.938555 -10.706067 -31.181496 57.979383 -18.299276 -6.515103 3.489614 -0.442917 
0.305327 0.279278 0.809240 88.452337 1.904199 76.969888 14.213430 5.781907 -24.951483 -9.177317 5.181049 72.552528 0.962092 16.169500 -36.596399 0.000000 -0.000000 0.000000 -9.861833 -6.335601 -26.925522 5.334974 -3.516857 72.111509 0.302567 -8.765738 -34.118205 0.000000 -0.000000 0.000000 1.706440 0.890517 32.538594 1.160644 -4.119169 1.045641 1.118093 -0.233447 5.731148 0.820687 1.876572 -12.500784 5.427186 -3.185443 -12.578669 12.951919 -26.408814 -17.843810 -15.131911 -25.970070 -9.975073 30.462839 -61.251652 -21.402993 16.945185 -4.528631 -10.656447 -13.884885 25.008230 -15.282542 16.148613 28.915889 -10.698542 -31.129136 58.024710 -18.232444 -6.516292 3.467003 -0.471649 
0.305297 0.279179 0.809024 88.433720 1.904703 76.979480 14.233797 5.800370 -24.975719 -9.173099 5.194885 72.591519 0.962021 16.154487 -36.612748 0.000000 -0.000000 0.000000 -9.849841 -6.340087 -26.970031 5.344841 -3.509922 72.166942 0.312032 -8.773229 -34.151036 0.000000 -0.000000 0.000000 1.703508 0.895228 32.555388 1.157603 -4.103776 1.028030 1.120355 -0.223517 5.721386 0.809709 1.907302 -12.516970 5.412847 -3.180442 -12.560049 12.978301 -26.408974 -17.863113 -15.076917 -25.969629 -10.018892 30.440057 -61.235113 -21.389011 16.868331 -4.563545 -10.610822 -13.883261 25.010409 -15.281583 16.116499 28.917487 -10.708346 -31.096242 58.034078 -18.214200 -6.505785 3.454779 -0.492761 
0.305253 0.279116 0.808741 88.423158 1.903588 76.982320 14.243769 5.812296 -25.007579 -9.167672 5.208390 72.646221 0.967168 16.168139 -36.635500 0.000000 -0.000000 0.000000 -9.858250 -6.352571 -27.005432 5.345900 -3.525701 72.216941 0.306457 -8.730344 -34.197834 0.000000 -0.000000 0.000000 1.708293 0.894646 32.570529 1.152895 -4.096546 1.013542 1.118558 -0.212869 5.728106 0.801968 1.923720 -12.506707 5.416408 -3.170853 -12.591483 12.996406 -26.391679 -17.898606 -15.043104 -25.990126 -10.062346 30.407870 -61.230640 -21.414646 16.883975 -4.549856 -10.604023 -13.902184 25.000922 -15.281862 16.091701 28.926745 -10.752965 -31.095301 58.024705 -18.235200 -6.471497 3.452038 -0.507578 
0.305278 0.279036 0.808272 88.422113 1.913680 76.946996 14.260985 5.814043 -25.018987 -9.184605 5.194788 72.745146 0.965609 16.197315 -36.697441 0.000000 -0.000000 0.000000 -9.867090 -6.355471 -27.008690 5.366089 -3.545898 72.312584 0.278750 -8.741026 -34.259581 0.000000 -0.000000 0.000000 1.714896 0.896175 32.619554 1.151847 -4.094910 1.007214 1.118248 -0.210538 5.688641 0.797689 1.949311 -12.495618 5.463567 -3.142427 -12.524612 13.022272 -26.493659 -17.865632 -14.955826 -25.907325 -10.078499 30.555486 -61.171861 -21.560953 16.942570 -4.587549 -10.633127 -13.904995 25.075455 -15.237878 16.013303 28.870127 -10.828842 -31.083728 57.994074 -18.236748 -6.509038 3.484548 -0.542275 
0.305435 0.278963 0.807787 88.429847 1.920110 76.900712 14.273747 5.798491 -25.012002 -9.188868 5.183655 72.843322 0.968499 16.207437 -36.756839 0.000000 -0.000000 0.000000 -9.874955 -6.327395 -26.980613 5.369841 -3.567107 72.395268 0.282830 -8.772136 -34.295076 0.000000 -0.000000 0.000000 1.713640 0.890066 32.624564 1.165415 -4.101943 1.046548 1.117925 -0.229913 5.717238 0.832584 1.898177 -12.454803 5.425300 -3.188183 -12.538074 13.035486 -26.462412 -17.885605 -14.967658 -25.930299 -10.115196 30.617894 -61.131871 -21.606297 16.891146 -4.591894 -10.606836 -13.940347 25.064681 -15.296501 16.047190 28.938752 -10.820639 -31.115318 57.940602 -18.254370 -6.423826 3.468845 -0.537205 
0.305607 0.278914 0.807415 88.419513 1.910095 76.868240 14.269172 5.786665 -25.005561 -9.174388 5.190554 72.919740 0.963622 16.221395 -36.784928 0.000000 -0.000000 0.000000 -9.872444 -6.316953 -26.980291 5.356550 -3.548130 72.472616 0.285664 -8.764157 -34.368065 0.000000 -0.000000 0.000000 1.706176 0.897160 32.621193 1.164453 -4.102326 1.055439 1.112309 -0.224333 5.732587 0.844773 1.901877 -12.440114 5.426310 -3.192847 -12.503341 13.025788 -26.459788 -17.881115 -15.025532 -25.954554 -10.105441 30.677723 -61.141450 -21.628706 16.898503 -4.578906 -10.581655 -13.946741 25.070598 -15.311397 16.090909 28.962495 -10.824336 -31.124570 57.913015 -18.249755 -6.335601 3.417223 -0.608802 
0.305788 0.278879 0.807116 88.427005 1.912157 76.837850 14.275049 5.789660 -24.990400 -9.175204 5.190521 72.981035 0.970611 16.231629 -36.830561 0.000000 -0.000000 0.000000 -9.878537 -6.312325 -26.950213 5.343284 -3.550981 72.529368 0.278275 -8.791988 -34.386298 0.000000 -0.000000 0.000000 1.706468 0.889918 32.607023 1.171006 -4.109031 1.088552 1.105141 -0.223073 5.731853 0.860572 1.886292 -12.425760 5.423122 -3.197726 -12.494002 12.984760 -26.466208 -17.860538 -15.028025 -25.965287 -10.100543 30.672396 -61.176572 -21.624438 16.859604 -4.610364 -10.624706 -13.918192 25.091213 -15.282316 16.053941 28.963883 -10.824334 -31.091185 57.924011 -18.238463 -6.408147 3.433185 -0.630425 
